<?xml version="1.0" standalone="no"?>
<!DOCTYPE svg PUBLIC "-//W3C//DTD SVG 20010904//EN"
 "http://www.w3.org/TR/2001/REC-SVG-20010904/DTD/svg10.dtd">
<svg version="1.0" xmlns="http://www.w3.org/2000/svg"
 width="516.000000pt" height="516.000000pt" viewBox="0 0 516.000000 516.000000"
 preserveAspectRatio="xMidYMid meet">
<metadata>
Created by potrace 1.16, written by Peter Selinger 2001-2019
</metadata>
<g transform="translate(0.000000,516.000000) scale(0.100000,-0.100000)"
fill="#ffffff" stroke="none">
<path d="M1685 5121 c-142 -44 -143 -44 -231 -117 -38 -31 -98 -71 -134 -89
-36 -18 -83 -52 -105 -74 -37 -39 -42 -41 -100 -41 -62 0 -77 -7 -149 -64
l-37 -29 -122 32 c-218 56 -322 39 -374 -59 -21 -39 -24 -55 -21 -125 4 -78 6
-85 121 -327 101 -212 116 -251 107 -269 -17 -31 -50 -300 -49 -404 0 -51 6
-107 14 -129 l14 -39 -69 -78 c-38 -43 -72 -90 -76 -104 -5 -21 -12 -25 -40
-25 -123 0 -201 -103 -211 -280 -5 -79 -3 -91 26 -161 17 -42 44 -87 59 -101
30 -29 84 -58 105 -58 8 0 21 -14 28 -32 7 -18 26 -46 41 -64 19 -22 25 -35
17 -39 -6 -4 -24 -28 -40 -53 -26 -42 -29 -54 -29 -135 0 -88 1 -91 59 -216
50 -105 66 -153 96 -291 45 -203 49 -214 103 -272 l44 -47 -6 -68 c-19 -207
-19 -227 9 -319 14 -49 32 -111 40 -137 7 -27 38 -90 68 -140 45 -75 63 -119
96 -237 22 -80 49 -203 59 -275 19 -134 33 -174 74 -212 34 -32 71 -43 147
-43 55 0 90 8 192 46 148 54 167 65 244 143 50 52 70 64 135 86 75 25 75 25
229 12 l155 -12 65 -84 c81 -102 111 -120 209 -121 120 0 167 34 219 160 l28
68 55 -5 c30 -3 78 -11 107 -19 67 -18 196 -18 231 0 60 31 74 56 179 311 71
171 75 186 85 295 10 108 14 121 58 210 27 52 54 103 62 113 10 14 53 22 207
42 107 13 240 28 296 31 102 7 103 7 205 -32 98 -37 103 -41 120 -80 23 -53
69 -88 158 -119 150 -52 282 -16 321 88 6 16 11 71 11 122 0 80 9 131 60 346
47 197 60 269 60 330 0 98 -45 333 -71 376 -24 38 -68 67 -129 83 -25 7 -48
14 -53 17 -4 2 4 23 18 47 21 36 25 55 25 125 0 89 -10 119 -57 163 -51 48
-67 50 -354 43 l-266 -7 -6 66 c-4 47 -2 75 8 100 10 23 15 70 15 130 0 88 -3
102 -45 210 -35 92 -45 130 -45 177 0 63 -21 120 -56 150 -28 24 -277 177
-308 189 -35 13 -107 13 -201 -1 l-76 -12 -232 141 c-128 77 -250 149 -272
160 -24 11 -82 24 -145 32 -58 6 -112 14 -121 16 -9 3 -73 66 -143 141 l-126
136 0 286 c0 157 -5 304 -10 325 -11 48 -36 84 -80 114 -31 21 -42 22 -204 21
-168 -1 -173 -1 -291 -38z m267 -903 c35 -54 368 -395 395 -406 15 -6 84 -18
152 -26 l124 -16 257 -155 c141 -85 273 -162 293 -170 42 -18 121 -19 216 -5
l67 11 76 -46 75 -46 6 -57 c3 -31 17 -84 30 -117 21 -50 23 -61 11 -68 -28
-16 -44 -65 -44 -139 0 -63 5 -81 31 -128 28 -49 33 -69 44 -192 13 -148 22
-174 78 -209 31 -20 42 -20 268 -15 l236 6 6 -77 c11 -166 61 -246 172 -277
100 -28 100 -28 111 -89 10 -51 6 -72 -41 -267 -29 -116 -54 -213 -57 -215 -3
-3 -61 16 -129 42 l-124 48 -200 -1 c-161 -1 -250 -7 -455 -33 -140 -17 -267
-36 -281 -42 -45 -18 -74 -59 -164 -234 l-87 -170 -5 -95 c-3 -88 -8 -107 -66
-254 l-62 -158 -70 6 c-38 3 -122 9 -185 13 -106 5 -119 4 -158 -16 -24 -12
-48 -32 -54 -45 l-10 -24 -36 24 c-19 13 -49 24 -66 24 -17 0 -85 5 -151 10
-98 8 -125 14 -150 32 -112 83 -123 88 -202 88 l-76 0 -43 -44 c-25 -24 -44
-53 -44 -65 0 -12 -6 -24 -12 -26 -116 -40 -133 -50 -216 -128 l-86 -81 -17
84 c-24 123 -87 336 -116 395 -14 27 -41 76 -60 108 -42 69 -78 199 -63 227 6
10 10 39 10 65 0 31 7 55 22 75 23 32 36 127 23 177 -3 15 -44 65 -90 113
l-84 85 -40 175 c-28 121 -53 200 -79 255 l-39 81 64 79 c79 98 93 129 93 200
0 91 -29 129 -133 180 -56 27 -63 33 -68 67 -5 34 -3 38 23 49 16 6 40 25 54
42 25 29 26 35 23 137 l-4 107 54 59 c82 90 91 108 91 191 0 58 -6 88 -31 150
l-31 78 11 104 c9 84 16 113 41 156 27 47 30 61 30 139 0 85 -1 89 -59 211
-84 177 -84 161 -3 167 76 6 163 40 224 88 30 25 46 30 90 30 68 0 148 38 185
87 16 21 52 47 88 64 34 16 94 56 133 88 60 51 84 64 164 88 l93 29 5 -286 c4
-248 7 -289 22 -312z"/>
</g>
</svg>
